<svg data-v-423bf9ae="" xmlns="http://www.w3.org/2000/svg" viewBox="0 0 340 90" class="iconLeft"><!----><!----><!----><g data-v-423bf9ae="" id="6aef7709-e9e3-44eb-8a30-853d1461242e" fill="white" transform="matrix(4.750593781182714,0,0,4.750593781182714,80.69696900415991,-2.2921635307922514)"><path d="M8.26 11.79L8.26 8.60L9.60 8.60L9.60 12.42L9.60 12.42Q8.88 13.02 7.91 13.34L7.91 13.34L7.91 13.34Q6.94 13.66 5.89 13.66L5.89 13.66L5.89 13.66Q4.41 13.66 3.22 13.01L3.22 13.01L3.22 13.01Q2.03 12.36 1.35 11.22L1.35 11.22L1.35 11.22Q0.67 10.08 0.67 8.65L0.67 8.65L0.67 8.65Q0.67 7.22 1.35 6.08L1.35 6.08L1.35 6.08Q2.03 4.93 3.23 4.28L3.23 4.28L3.23 4.28Q4.42 3.64 5.92 3.64L5.92 3.64L5.92 3.64Q7.10 3.64 8.06 4.02L8.06 4.02L8.06 4.02Q9.02 4.41 9.69 5.15L9.69 5.15L8.82 6.02L8.82 6.02Q7.64 4.89 5.98 4.89L5.98 4.89L5.98 4.89Q4.86 4.89 3.97 5.37L3.97 5.37L3.97 5.37Q3.08 5.85 2.58 6.71L2.58 6.71L2.58 6.71Q2.07 7.57 2.07 8.65L2.07 8.65L2.07 8.65Q2.07 9.72 2.58 10.58L2.58 10.58L2.58 10.58Q3.08 11.44 3.97 11.93L3.97 11.93L3.97 11.93Q4.86 12.42 5.96 12.42L5.96 12.42L5.96 12.42Q7.28 12.42 8.26 11.79L8.26 11.79ZM18.79 9.88L18.79 9.88Q18.79 10.04 18.76 10.29L18.76 10.29L12.74 10.29L12.74 10.29Q12.87 11.27 13.60 11.87L13.60 11.87L13.60 11.87Q14.34 12.46 15.43 12.46L15.43 12.46L15.43 12.46Q16.76 12.46 17.57 11.56L17.57 11.56L18.31 12.43L18.31 12.43Q17.81 13.02 17.06 13.33L17.06 13.33L17.06 13.33Q16.31 13.64 15.39 13.64L15.39 13.64L15.39 13.64Q14.21 13.64 13.30 13.15L13.30 13.15L13.30 13.15Q12.39 12.67 11.89 11.80L11.89 11.80L11.89 11.80Q11.40 10.93 11.40 9.84L11.40 9.84L11.40 9.84Q11.40 8.76 11.88 7.90L11.88 7.90L11.88 7.90Q12.36 7.03 13.21 6.54L13.21 6.54L13.21 6.54Q14.06 6.06 15.12 6.06L15.12 6.06L15.12 6.06Q16.18 6.06 17.02 6.54L17.02 6.54L17.02 6.54Q17.85 7.03 18.32 7.90L18.32 7.90L18.32 7.90Q18.79 8.76 18.79 9.88L18.79 9.88ZM15.12 7.20L15.12 7.20Q14.15 7.20 13.50 7.78L13.50 7.78L13.50 7.78Q12.85 8.37 12.74 9.32L12.74 9.32L17.50 9.32L17.50 9.32Q17.39 8.39 16.74 7.79L16.74 7.79L16.74 7.79Q16.09 7.20 15.12 7.20L15.12 7.20ZM24.40 12.15L24.82 13.12L24.82 13.12Q24.53 13.37 24.09 13.50L24.09 13.50L24.09 13.50Q23.66 13.64 23.20 13.64L23.20 13.64L23.20 13.64Q22.08 13.64 21.46 13.03L21.46 13.03L21.46 13.03Q20.85 12.43 20.85 11.31L20.85 11.31L20.85 7.24L19.59 7.24L19.59 6.13L20.85 6.13L20.85 4.51L22.19 4.51L22.19 6.13L24.32 6.13L24.32 7.24L22.19 7.24L22.19 11.26L22.19 11.26Q22.19 11.86 22.49 12.18L22.49 12.18L22.49 12.18Q22.79 12.50 23.35 12.50L23.35 12.50L23.35 12.50Q23.97 12.50 24.40 12.15L24.40 12.15ZM37.32 4.97L31.81 4.97L31.81 8.39L36.72 8.39L36.72 9.59L31.81 9.59L31.81 13.55L30.41 13.55L30.41 3.75L37.32 3.75L37.32 4.97ZM41.80 6.06L41.80 6.06Q43.34 6.06 44.16 6.82L44.16 6.82L44.16 6.82Q44.98 7.57 44.98 9.07L44.98 9.07L44.98 13.55L43.71 13.55L43.71 12.57L43.71 12.57Q43.37 13.09 42.75 13.36L42.75 13.36L42.75 13.36Q42.13 13.64 41.27 13.64L41.27 13.64L41.27 13.64Q40.03 13.64 39.28 13.03L39.28 13.03L39.28 13.03Q38.53 12.43 38.53 11.45L38.53 11.45L38.53 11.45Q38.53 10.47 39.24 9.88L39.24 9.88L39.24 9.88Q39.96 9.28 41.51 9.28L41.51 9.28L43.64 9.28L43.64 9.02L43.64 9.02Q43.64 8.15 43.13 7.69L43.13 7.69L43.13 7.69Q42.63 7.22 41.65 7.22L41.65 7.22L41.65 7.22Q40.99 7.22 40.36 7.44L40.36 7.44L40.36 7.44Q39.73 7.66 39.30 8.02L39.30 8.02L38.74 7.01L38.74 7.01Q39.31 6.55 40.11 6.31L40.11 6.31L40.11 6.31Q40.91 6.06 41.80 6.06L41.80 6.06ZM41.50 12.60L41.50 12.60Q42.27 12.60 42.83 12.26L42.83 12.26L42.83 12.26Q43.39 11.91 43.64 11.28L43.64 11.28L43.64 10.25L41.57 10.25L41.57 10.25Q39.86 10.25 39.86 11.40L39.86 11.40L39.86 11.40Q39.86 11.96 40.29 12.28L40.29 12.28L40.29 12.28Q40.73 12.60 41.50 12.60L41.50 12.60ZM53.19 6.13L54.47 6.13L54.47 16.27L53.13 16.27L53.13 12.43L53.13 12.43Q52.67 13.02 52.00 13.33L52.00 13.33L52.00 13.33Q51.34 13.64 50.54 13.64L50.54 13.64L50.54 13.64Q49.46 13.64 48.61 13.16L48.61 13.16L48.61 13.16Q47.75 12.68 47.27 11.82L47.27 11.82L47.27 11.82Q46.79 10.96 46.79 9.84L46.79 9.84L46.79 9.84Q46.79 8.72 47.27 7.87L47.27 7.87L47.27 7.87Q47.75 7.01 48.61 6.54L48.61 6.54L48.61 6.54Q49.46 6.06 50.54 6.06L50.54 6.06L50.54 6.06Q51.37 6.06 52.05 6.38L52.05 6.38L52.05 6.38Q52.74 6.69 53.19 7.31L53.19 7.31L53.19 6.13ZM50.65 12.46L50.65 12.46Q51.35 12.46 51.93 12.13L51.93 12.13L51.93 12.13Q52.50 11.80 52.82 11.21L52.82 11.21L52.82 11.21Q53.14 10.61 53.14 9.84L53.14 9.84L53.14 9.84Q53.14 9.07 52.81 8.48L52.81 8.48L52.81 8.48Q52.49 7.90 51.92 7.57L51.92 7.57L51.92 7.57Q51.35 7.24 50.65 7.24L50.65 7.24L50.65 7.24Q49.94 7.24 49.37 7.56L49.37 7.56L49.37 7.56Q48.80 7.88 48.47 8.48L48.47 8.48L48.47 8.48Q48.15 9.07 48.15 9.84L48.15 9.84L48.15 9.84Q48.15 10.61 48.47 11.21L48.47 11.21L48.47 11.21Q48.80 11.80 49.37 12.13L49.37 12.13L49.37 12.13Q49.94 12.46 50.65 12.46L50.65 12.46Z"></path></g><!----><g data-v-423bf9ae="" id="419c0711-66c5-467f-9f9a-6288591a176a" transform="matrix(1.0616211057815228,0,0,1.0616211057815228,-6.345276666994231,-8.5314819198327)" stroke="none" fill="white"><path d="M65.65 88.661H54.19V73.84c.89-.045 1.622-.099 2.161-.144.601-.05 1.056-.554 1.056-1.157V57.254c0-.333-1.17-.66-3.217-.846V49.94h6.03v-5.577H40.7v5.577h6.029v6.45c-2.166.184-3.411.52-3.411.863v5.308h-21.11c-2.715 0-6.384-1.688-6.384-20.84 0-19.153 1.688-22.015 5.063-22.015H44.37c1.24 0 1.204 1.858 1.18 3.819-2.86.4-5.436 1.102-5.436 1.978v4.256h20.694v-4.256c0-.83-2.314-1.501-4.99-1.91v-7.41c0-5.87-2.055-7.558-11.594-7.558-14.823 0-30.197 2.532-33.536 5.87-3.339 3.34-4.11 9.98-4.11 26.703s3.882 24.194 7.192 27.504c2.952 2.952 24.841 2.292 29.549 2.114v1.722c0 .604.455 1.106 1.056 1.157.58.048 1.378.106 2.355.153V88.66H35.27a1.1 1.1 0 1 0 0 2.202h11.475a2.694 2.694 0 0 0 2.681 2.539h2.067a2.694 2.694 0 0 0 2.681-2.54H65.65a1.1 1.1 0 1 0 0-2.2zM46.97 21.364c.044-.01 1.126-.23 3.49-.23 2.364 0 3.445.22 3.49.23.395.084.648.471.566.867a.736.736 0 0 1-.866.57c-.01-.002-1.006-.2-3.19-.2s-3.181.198-3.19.2a.735.735 0 0 1-.3-1.437zM42.804 68.8a.367.367 0 0 1-.734 0v-3.4a.367.367 0 0 1 .734 0v3.4zm4.379 2.129a.734.734 0 0 1-1.469 0v-11.79a.734.734 0 0 1 1.469 0v11.79zm1.014 2.975a76.36 76.36 0 0 0 2.165.033c.712 0 1.365-.012 1.989-.028l-4.154 1.763v-1.768zm3.296 18.03h-2.067c-.622 0-1.116-.47-1.197-1.07h4.461c-.08.6-.575 1.07-1.197 1.07zm1.23-3.272h-.011l.01-.004v.004zm0-1.598l-3.768 1.598h-.758V86.14l4.525-1.92v2.843zm0-4.438l-4.526 1.92v-2.842l4.525-1.922v2.844zm0-4.438l-4.526 1.921v-2.843l4.525-1.92v2.842zm0-22.187l-.66.28a49.156 49.156 0 0 0-3.866.021v-1.224l4.525-1.92V56zm0-4.438l-4.526 1.92v-3.541h4.525v1.62z"></path></g><!----></svg>